# xmcd CD database file
#
# Track frame offsets:
#	150
#	21512
#	42932
#
# Disc length: 855 seconds
#
# Revision: 1
# Processed by: cddbd v1.5PL3 Copyright (c) Steve Scherf et al.
# Submitted via: CDex 1.50beta9
#
DISCID=20035503
DTITLE=山下達郎 - ヘロン
DYEAR=1998
DGENRE=J-POP
TTITLE0=ヘロン
TTITLE1=ヘロン　カラオケ
TTITLE2=ヘロン　GUITAR　INSTUMENTAL
EXTD=YEAR: 1998
EXTT0=
EXTT1=
EXTT2=
PLAYORDER=
